<?xml version="1.0" encoding="utf-8"?>
<!-- Generator: Adobe Illustrator 22.1.0, SVG Export Plug-In . SVG Version: 6.00 Build 0)  -->
<svg version="1.1" id="Layer_1" xmlns="http://www.w3.org/2000/svg" xmlns:xlink="http://www.w3.org/1999/xlink" x="0px" y="0px"
	 viewBox="0 0 500 500" style="enable-background:new 0 0 500 500;" xml:space="preserve">
<style type="text/css">
	.st0{clip-path:url(#SVGID_2_);}
	.st1{fill:#422918;}
	.st2{fill:#6E7AB9;}
	.st3{fill:#DCA678;}
	.st4{fill:#F8BA8C;}
	.st5{fill:#AB0F0A;}
	.st6{clip-path:url(#SVGID_4_);}
	.st7{fill:#293033;}
	.st8{fill:#442928;}
</style>
<g>
	<g>
		<defs>
			<path id="SVGID_1_" d="M421.2,251c0,94.4-76.6,171-171,171c-94.4,0-171-76.6-171-171c0-94.4,76.6-171,171-171
				C344.6,80,421.2,156.6,421.2,251z"/>
		</defs>
		<use xlink:href="#SVGID_1_"  style="overflow:visible;fill:#AD9CCB;"/>
		<clipPath id="SVGID_2_">
			<use xlink:href="#SVGID_1_"  style="overflow:visible;"/>
		</clipPath>
		<g class="st0">
			<path class="st1" d="M169.6,308.2c14.3,32.4,132.1,35.7,149,3.5c-19.7-13.4-4.2-64.2-4.2-64.2l5.3-37.6
				c12-48.1-29.4-120.3-70.4-94.8c-24-23.7-83.3,27-69.3,94.2l0.3,30.8C180.2,239.9,192.2,296.8,169.6,308.2z"/>
			<path class="st2" d="M344.5,351c-10.7-13.4-95.8-42.8-95.8-42.8s-83.3,32.5-95.8,42.8c-12.5,10.3-17.2,75.2-17.2,75.2h223.6
				C359.3,426.2,355.3,364.4,344.5,351z"/>
			<path class="st3" d="M275.1,323.9c0,0-3.3,15.8-26.3,15.8c-23.1,0-26.3-15.8-26.3-15.8s6.4-12.8,0-27.7c-6.4-15,60.5-18,52.7,0
				C267.2,314.1,275.1,323.9,275.1,323.9z"/>
			<path class="st4" d="M323.2,222.8c0,11.9-8.4,28.2-14.1,28.2c-5.7,0-10.3-9.6-10.3-21.5c0-11.9,5.8-18,10.3-21.5
				C314.6,203.6,323.2,207.9,323.2,222.8z"/>
			<path class="st4" d="M176,222.8c0,11.9,8.4,28.2,14.1,28.2c5.7,0,10.3-9.6,10.3-21.5c0-11.9-5.8-18-10.3-21.5
				C184.6,203.6,176,207.9,176,222.8z"/>
			<path class="st4" d="M249.8,128.5c-39.9,0-57.6,28-57.6,69.7c0,21.3,0,37.9,0,52.3c0,36.3,42,67.4,55.3,67.4
				c13.3,0,59.9-36.4,59.9-70.8c0-13.6,0-29.3,0-48.9C307.4,156.5,289.7,128.5,249.8,128.5z"/>
			<path class="st1" d="M307.4,228l1.7-21.7c8.7-42.2-19-83-58.9-83s-70.9,44.5-60.2,86.7l2.2,24.7c0,0,7.7-6.5,9-18.2
				c0,0,44.9-22.8,47.6-65.2c14.3,35.8,50.6,61.8,50.6,61.8C301.3,225.3,307.4,228,307.4,228z"/>
		</g>
		<g class="st0">
			<path class="st5" d="M219.5,202.4c-15.5,0-25.1,5.7-25.1,11.8c0,9.7,3.5,25.4,18.9,27.3c14.8,1.8,34.2-3.6,34.2-28.3
				C247.5,207.5,235,202.4,219.5,202.4z M214.4,238.8c-13.1-1.6-16.2-15-16.2-23.3c0-5.2,8.3-10.1,21.5-10.1c13.2,0,24,4.3,24,9.2
				C243.7,235.7,227.1,240.3,214.4,238.8z"/>
			<path class="st5" d="M257.2,219.5c0,0-0.7-3.8-5.8-3.8c-3.5,0-4.4,4.1-4.4,4.1l-1.9-10.9c0,0,2.6,2.2,4.3,2.2
				c0.9,0,2.9,0.4,4.7,0c1.7-0.4,3.1-2.2,3.1-2.2V219.5z"/>
			<path class="st5" d="M196.6,225.4c0,0-5.6-0.4-5.6-3.2c0-2.8,0-4.1,0-8.6c0-4.5,5.6-3.1,5.6-3.1V225.4z"/>
			<path class="st5" d="M254.7,213.2c0,24.7,19.4,30.1,34.2,28.3c15.3-1.9,18.9-17.6,18.9-27.3c0-6.1-9.7-11.8-25.1-11.8
				C267.2,202.4,254.7,207.5,254.7,213.2z M258.5,214.5c0-4.9,10.7-9.2,23.9-9.2c13.2,0,21.5,4.9,21.5,10.1c0,8.3-3,21.8-16.2,23.3
				C275.1,240.3,258.5,235.7,258.5,214.5z"/>
			<path class="st5" d="M305.6,225.4c0,0,5.6-0.4,5.6-3.2c0-2.8,0-4.1,0-8.6c0-4.5-5.6-3.1-5.6-3.1V225.4z"/>
		</g>
	</g>
</g>
<g>
	<g>
		<defs>
			<path id="SVGID_3_" d="M421,250c0,94.4-76.6,171-171,171c-94.4,0-171-76.6-171-171c0-94.4,76.6-171,171-171
				C344.5,79,421,155.6,421,250z"/>
		</defs>
		<use xlink:href="#SVGID_3_"  style="overflow:visible;fill:#F6D9A1;"/>
		<clipPath id="SVGID_4_">
			<use xlink:href="#SVGID_3_"  style="overflow:visible;"/>
		</clipPath>
		<g class="st6">
			<path class="st7" d="M344.7,350c-10.7-13.4-95.8-42.8-95.8-42.8s-83.3,32.5-95.8,42.8c-12.5,10.3-17.2,75.2-17.2,75.2h223.6
				C359.5,425.2,355.5,363.4,344.7,350z"/>
			<path class="st3" d="M275.3,322.9c0,0-3.3,15.8-26.3,15.8c-23.1,0-26.3-15.8-26.3-15.8s6.4-12.8,0-27.7c-6.4-15,60.5-18,52.7,0
				C267.4,313.1,275.3,322.9,275.3,322.9z"/>
			<path class="st8" d="M303.9,263.7c1.7-22.5,15.9-54.9,15.9-54.9c20.3-45.4-0.8-113.8-40.1-92.7c-48.7-44.5-125.7,17.7-99.6,92.1
				c0,0,12.4,30.1,13.6,52.4c1.2,22.2,41.1,66.7,54,67.4C260.5,328.7,302.3,286.1,303.9,263.7z"/>
			<path class="st4" d="M323.4,221.8c0,11.9-8.4,28.2-14.1,28.2c-5.7,0-10.3-9.6-10.3-21.5c0-11.9,5.8-18,10.3-21.5
				C314.8,202.6,323.4,206.9,323.4,221.8z"/>
			<path class="st4" d="M176.2,221.8c0,11.9,8.4,28.2,14.1,28.2c5.7,0,10.3-9.6,10.3-21.5c0-11.9-5.8-18-10.3-21.5
				C184.8,202.6,176.2,206.9,176.2,221.8z"/>
			<path class="st4" d="M250,127.5c-39.9,0-57.6,28-57.6,69.7c0,21.3,0,37.9,0,52.3c0,36.3,42,67.4,55.3,67.4
				c13.3,0,59.9-36.3,59.9-70.8c0-13.6,0-29.3,0-48.9C307.6,155.5,290,127.5,250,127.5z"/>
			<path class="st8" d="M307.6,227l3.6-30.5c0-41.7-21.2-72.8-61.2-72.8c-39.9,0-61.7,35.6-61.7,77.3l4.1,32.7c0,0,9.4-6.4,9-18.2
				c-1-26.8,13.1-30.7,34.9-34.9c34.4-6.6,44.1-27.2,44.1-27.2s11.3,3.8,18.5,20.7c4.7,10.9-1.4,22.7-1.8,29.5
				C296.8,210.4,307.6,227,307.6,227z"/>
			<path class="st8" d="M253.8,295.2c-3.5,0.2-10,0.8-12.1,0c6.5,9.9,0,24,0,24h12.1C253.8,319.1,248.5,307.1,253.8,295.2z"/>
		</g>
	</g>
</g>
</svg>
