<?xml version="1.0" encoding="utf-8"?>
<!-- Generator: Adobe Illustrator 22.1.0, SVG Export Plug-In . SVG Version: 6.00 Build 0)  -->
<svg version="1.1" id="Layer_1" xmlns="http://www.w3.org/2000/svg" xmlns:xlink="http://www.w3.org/1999/xlink" x="0px" y="0px"
	 viewBox="0 0 2205 400" style="enable-background:new 0 0 2205 400;" xml:space="preserve">
<style type="text/css">
	.st0{fill:#00C3A5;}
</style>
<path class="st0" d="M2064.3,136.1c19.8-1.6,41.3-2.1,62.1-2.1c48.9,0,78.1,18.9,78.1,72.3V340h-41l-2-20h-0.5
	c-14.1,15.2-34.5,24-60.7,24c-34.7,0-62.2-22.4-62.2-66.9c0-41.4,34.5-79.9,120.8-61.6v-12c0-23.8-14-30.5-41.5-30.5
	c-16.9,0-31.2,1.1-53,3V136.1z M2158.8,247.1c-36.6-9.3-73.2,2.1-73.2,30.4c0,18.8,12.4,29.8,31,28.9c14.6-0.6,30.7-7.1,42.2-17.3
	V247.1z M2006.1,140l-45.6,0.3V340h45.6V140z M1983.5,111.8c14.3,0,25.9-11.6,25.9-25.9S1997.8,60,1983.5,60s-25.9,11.6-25.9,25.9
	S1969.2,111.8,1983.5,111.8z M1916.6,60l-45.6,5.3V340h45.6V60z M1687.3,136.1c19.8-1.6,41.3-2.1,62.1-2.1
	c48.9,0,78.1,18.9,78.1,72.3V340h-41l-2-20h-0.5c-14.1,15.2-34.5,24-60.7,24c-34.7,0-62.2-22.4-62.2-66.9
	c0-41.4,34.5-79.9,120.8-61.6v-12c0-23.8-14-30.5-41.5-30.5c-16.9,0-31.2,1.1-53,3V136.1z M1781.8,247.1
	c-36.6-9.3-73.2,2.1-73.2,30.4c0,18.8,12.4,29.8,31,28.9c14.6-0.6,30.7-7.1,42.2-17.3L1781.8,247.1L1781.8,247.1z M1540.6,140v200
	h45.6V239.9c0-25.1,19.2-52.8,60.9-60.9v-42c-28.7,1.6-53.3,20.5-63.3,35.2h-0.4l-3.2-32.2H1540.6z M1321.3,241V239
	c0-66.8,30.8-105,94.3-105c63.1,0,93.9,38.1,93.9,105v2.1c0,66.8-30.8,105-93.9,105C1352.1,346,1321.3,307.9,1321.3,241z
	 M1415.6,172c-32.3,0-47.2,21.9-47.2,67.7s14.9,67.3,47.2,67.3s46.8-21.4,46.8-67.3S1447.9,172,1415.6,172z M1206,85.3v189.2
	c0,46,14,71.5,66.2,71.5c7.1,0,18.1-1,26.2-2.8v-37.6c-4.5,1-10.6,2.4-18,2.4c-18,0-28.8-4.1-28.8-39v-92h46.7v-37h-46.7V80
	L1206,85.3L1206,85.3z M1066.9,240c0.1-43.7,19.1-67,56.7-67c15.9,0,32.1,2,46.8,3.9v-37c-12.1-2.4-32.1-5-52.6-5
	c-56.2,0-98.5,30.9-98.6,105c0.2,74.1,42.4,105,98.6,105c20.5,0,40.5-2.6,52.6-5v-37c-14.7,2-30.9,3.9-46.8,3.9
	C1085.9,307,1067,283.7,1066.9,240L1066.9,240z M802,241V239c0-66.8,30.8-105,94.3-105c63.1,0,93.9,38.1,93.9,105v2.1
	c0,66.8-30.8,105-93.9,105C832.8,346,802,307.9,802,241z M896.2,172c-32.3,0-47.2,21.9-47.2,67.7s14.9,67.3,47.2,67.3
	s46.8-21.4,46.8-67.3S928.5,172,896.2,172z M560,340V60h70.3c98,0,143.6,29.4,143.6,140s-45.6,140-143.6,140H560z M721.5,200
	c0-62.9-12.8-94.7-80.3-94.7h-31.3v189.4h31.3C708.8,294.7,721.5,262.9,721.5,200L721.5,200z M232.9,323.3l66,76.7l65.8-47.8
	l-64.2-106.3C271.5,263.8,243,298.5,232.9,323.3L232.9,323.3z M138,399.9c54.2-110.6,157.8-192.6,282-217l-25.2-77.7
	C244.2,122.2,116,213.5,47.5,341.6L138,399.9L138,399.9z M157.8,136.1L25.1,104.8L0,182.3l92.1,38.9c18.9-19.1,40-35.8,63.2-50
	c31.5-19.3,58.9-32.1,105.6-48.1L250.6,0h-81.4L157.8,136.1L157.8,136.1z"/>
</svg>
