<?xml version="1.0" encoding="utf-8"?>
<!-- Generator: Adobe Illustrator 22.1.0, SVG Export Plug-In . SVG Version: 6.00 Build 0)  -->
<svg version="1.1" xmlns="http://www.w3.org/2000/svg" xmlns:xlink="http://www.w3.org/1999/xlink" x="0px" y="0px"
	 viewBox="0 0 500 500" style="enable-background:new 0 0 500 500;" xml:space="preserve">
<style type="text/css">
	.st0{fill:#1977F3;}
	.st1{fill:#FDFEFF;}
</style>
<g id="Layer_1">
	<path class="st0" d="M386.6,461.9H112c-46.3,0-84.2-37.9-84.2-84.2V104.2C27.8,57.9,65.7,20,112,20h274.6
		c46.3,0,84.2,37.9,84.2,84.2v273.5C470.8,424,432.9,461.9,386.6,461.9z"/>
	<path class="st1" d="M216,462l66.7,0.7l1.3-152l49.3,0.7l10-62.7l-60.7-0.7l0.3-40.3c0,0-2-33,33.3-34.3c35.3-1.3,29,0.3,29,0.3
		l0.7-54.3c0,0-115.7-29.3-129.7,62.7l-1.3,65.7l-55.3,0.7v62H217C217,310.3,216.7,462.7,216,462z"/>
</g>
<g id="Layer_3">
</g>
<g id="Layer_2">
</g>
</svg>
