<?xml version="1.0" encoding="utf-8"?>
<!-- Generator: Adobe Illustrator 22.1.0, SVG Export Plug-In . SVG Version: 6.00 Build 0)  -->
<svg version="1.1"
	 id="Layer_1" xmlns:cc="http://creativecommons.org/ns#" xmlns:dc="http://purl.org/dc/elements/1.1/" xmlns:inkscape="http://www.inkscape.org/namespaces/inkscape" xmlns:rdf="http://www.w3.org/1999/02/22-rdf-syntax-ns#" xmlns:sodipodi="http://sodipodi.sourceforge.net/DTD/sodipodi-0.dtd" xmlns:svg="http://www.w3.org/2000/svg"
	 xmlns="http://www.w3.org/2000/svg" xmlns:xlink="http://www.w3.org/1999/xlink" x="0px" y="0px" viewBox="0 0 26.5 33.1"
	 style="enable-background:new 0 0 26.5 33.1;" xml:space="preserve">
<style type="text/css">
	.st0{fill:#26F3E5;}
</style>
<g transform="translate(0,-270.54165)">
	<path class="st0" d="M12.9,274.7c-5.3,0-9.5,4.2-9.5,9.5c0,3.7,2.3,7.4,4.6,10.3s4.6,4.9,4.6,4.9c0.2,0.2,0.5,0.2,0.7,0
		c0,0,2.3-2,4.6-4.9c2.3-2.9,4.6-6.7,4.6-10.3C22.4,278.9,18.1,274.7,12.9,274.7z M12.9,280.5c2,0,3.7,1.7,3.7,3.7
		c0,2-1.7,3.7-3.7,3.7s-3.7-1.7-3.7-3.7C9.2,282.1,10.9,280.5,12.9,280.5z"/>
</g>
</svg>
