<?xml version="1.0" encoding="utf-8"?>
<!-- Generator: Adobe Illustrator 22.1.0, SVG Export Plug-In . SVG Version: 6.00 Build 0)  -->
<svg version="1.1"
	 id="Layer_1" xmlns:cc="http://creativecommons.org/ns#" xmlns:dc="http://purl.org/dc/elements/1.1/" xmlns:inkscape="http://www.inkscape.org/namespaces/inkscape" xmlns:rdf="http://www.w3.org/1999/02/22-rdf-syntax-ns#" xmlns:sodipodi="http://sodipodi.sourceforge.net/DTD/sodipodi-0.dtd" xmlns:svg="http://www.w3.org/2000/svg"
	 xmlns="http://www.w3.org/2000/svg" xmlns:xlink="http://www.w3.org/1999/xlink" x="0px" y="0px" viewBox="0 0 12.7 15.9"
	 style="enable-background:new 0 0 12.7 15.9;" xml:space="preserve">
<style type="text/css">
	.st0{fill:#26F3E5;}
</style>
<g transform="translate(0,-284.29999)">
	<path class="st0" d="M4,286.1c-0.7,0-1.2,0.5-1.2,1.2v6.4c0,0.6,0.4,1.1,1,1.2c0.1,0,0.1,0.1,0.1,0.1c0,0,0,0,0,0.1l-1.7,2.6h1
		l1.2-1.8h4.1l1.2,1.8h1l-1.7-2.6c0-0.1,0-0.1,0-0.2c0,0,0,0,0.1,0h0c0.6-0.1,1-0.6,1-1.2v-6.4c0-0.7-0.5-1.2-1.2-1.2H4z M5.7,286.5
		h1.4c0.2,0,0.4,0.2,0.4,0.4c0,0.2-0.2,0.4-0.4,0.4H5.7c-0.2,0-0.4-0.2-0.4-0.4C5.3,286.7,5.5,286.5,5.7,286.5z M4.4,287.7h4.1
		c0.3,0,0.6,0.3,0.6,0.6c0,0,0,0,0,0v1.6c0,0.3-0.3,0.6-0.6,0.6c0,0,0,0,0,0H4.4c-0.3,0-0.6-0.3-0.6-0.6v-1.6
		C3.8,287.9,4,287.7,4.4,287.7z M4.3,292.7c0.4,0,0.8,0.3,0.8,0.8c0,0,0,0,0,0c0,0.4-0.3,0.8-0.7,0.8c-0.4,0-0.8-0.3-0.8-0.7
		c0,0,0,0,0,0C3.6,293,3.9,292.7,4.3,292.7C4.3,292.7,4.3,292.7,4.3,292.7z M8.5,292.7c0.4,0,0.8,0.3,0.8,0.7c0,0,0,0,0,0
		c0,0.4-0.3,0.8-0.8,0.8c-0.4,0-0.8-0.3-0.8-0.8C7.7,293,8.1,292.7,8.5,292.7z"/>
</g>
</svg>
