<?xml version="1.0" encoding="utf-8"?>
<!-- Generator: Adobe Illustrator 22.1.0, SVG Export Plug-In . SVG Version: 6.00 Build 0)  -->
<svg version="1.1"
	 id="Layer_1" xmlns:cc="http://creativecommons.org/ns#" xmlns:dc="http://purl.org/dc/elements/1.1/" xmlns:inkscape="http://www.inkscape.org/namespaces/inkscape" xmlns:rdf="http://www.w3.org/1999/02/22-rdf-syntax-ns#" xmlns:sodipodi="http://sodipodi.sourceforge.net/DTD/sodipodi-0.dtd" xmlns:svg="http://www.w3.org/2000/svg"
	 xmlns="http://www.w3.org/2000/svg" xmlns:xlink="http://www.w3.org/1999/xlink" x="0px" y="0px" viewBox="0 0 8.5 10.6"
	 style="enable-background:new 0 0 8.5 10.6;" xml:space="preserve">
<style type="text/css">
	.st0{fill:#26F3E5;}
</style>
<g transform="translate(0,-288.53333)">
	<path class="st0" d="M4.2,290.2c-0.2,0-0.3,0.1-0.4,0.1c-0.1,0.1-0.2,0.2-0.3,0.3c0,0.1-0.1,0.1-0.1,0.2c0.3,0.1,0.6,0.3,0.8,0.5
		c0.2-0.2,0.5-0.4,0.8-0.5c0-0.1-0.1-0.1-0.1-0.2c-0.1-0.1-0.2-0.2-0.3-0.3C4.4,290.3,4.3,290.2,4.2,290.2z M2.3,291.2v1.3
		c0,0.9,0.7,1.7,1.6,1.8v1.4c-0.5-0.6-1.2-1.1-2.1-1.1H1.5v0.3c0,1.5,1.2,2.6,2.6,2.6s2.6-1.2,2.6-2.6v-0.3H6.6
		c-0.9,0-1.6,0.4-2.1,1.1v-1.4c0.9-0.1,1.6-0.9,1.6-1.8v-1.3H5.8c-0.7,0-1.3,0.4-1.6,1c-0.3-0.6-0.9-1-1.6-1H2.3z"/>
</g>
</svg>
