<?xml version="1.0" encoding="utf-8"?>
<!-- Generator: Adobe Illustrator 22.1.0, SVG Export Plug-In . SVG Version: 6.00 Build 0)  -->
<svg version="1.1" id="Layer_1" xmlns="http://www.w3.org/2000/svg" xmlns:xlink="http://www.w3.org/1999/xlink" x="0px" y="0px"
	 viewBox="0 0 500 200" style="enable-background:new 0 0 500 200;" xml:space="preserve">
<style type="text/css">
	.st0{display:none;fill:#191919;}
	.st1{fill:#FFFFFF;}
	.st2{font-family:'CheltenhamOldStyT';}
	.st3{font-size:29.8136px;}
	.st4{fill-rule:evenodd;clip-rule:evenodd;fill:#FFFFFF;}
	.st5{font-family:'Literata-Medium';}
	.st6{font-size:12.4718px;}
	.st7{letter-spacing:2;}
</style>
<path class="st0" d="M620.1,233H65.9c-7.6,0-13.9-6.2-13.9-13.9V7.9C52,0.2,58.2-6,65.9-6h554.3C627.8-6,634,0.2,634,7.9v211.3
	C634,226.8,627.8,233,620.1,233z"/>
<g id="Layer_2">
	<g>
		<text transform="matrix(1 0 0 1 122.7107 106.481)" class="st1 st2 st3">Dra. Michelle Vilar</text>
	</g>
	<path class="st1" d="M88.3,99.1c0,0.3-0.3,0.4-0.5,0.4c-0.3,0-0.4-0.3-0.4-0.5l1.7-10.9c-0.1-0.6-0.3-1.1-0.6-1.5
		c-0.4-0.5-0.8-1-1.3-1.3c-0.3-0.2-0.6-0.4-0.8-0.5l0,0c-0.3-0.2-0.7-0.3-1-0.4c-0.1-0.1-0.3-0.1-0.4-0.1c-0.1,0-0.2-0.1-0.3-0.1
		c-0.1,0-0.1,0-0.2,0c-0.3,0-0.4-0.3-0.4-0.5c0-0.3,0.3-0.4,0.5-0.4l0,0h0h0l0,0c0,0,0.1,0,0.2,0.1c0.1,0,0.2,0.1,0.3,0.1
		c0.1,0,0.3,0.1,0.4,0.2c0.3,0.1,0.7,0.3,1.1,0.5l0,0c0.3,0.2,0.6,0.4,0.9,0.6c0.6,0.4,1.1,0.9,1.6,1.6c0,0.1,0.1,0.1,0.1,0.2
		l0.4-2.8c0-0.3,0.3-0.4,0.5-0.4c0.3,0,0.4,0.3,0.4,0.5l-0.4,2.8c0.4-0.4,0.9-0.7,1.4-0.9c0.5-0.2,1-0.4,1.4-0.5l0,0
		c0.6-0.1,1.2-0.2,1.6-0.2c0.6,0,1,0,1,0c0.3,0,0.4,0.3,0.4,0.5c0,0.3-0.3,0.4-0.5,0.4c0,0-0.3,0-0.8,0c-0.4,0-0.9,0.1-1.5,0.2v0
		c-0.4,0.1-0.8,0.2-1.3,0.4c-0.4,0.2-0.9,0.5-1.3,0.8c-0.3,0.3-0.6,0.6-0.8,1L88.3,99.1L88.3,99.1z"/>
	<path class="st4" d="M88.2,81.6c0.5,0.1,0.9,0.6,0.8,1.1c-0.1,0.5-0.6,0.9-1.1,0.8c-0.5-0.1-0.9-0.6-0.8-1.1
		C87.2,81.9,87.7,81.5,88.2,81.6L88.2,81.6z M90.8,80.1c0.5,0.1,0.9,0.6,0.8,1.1c-0.1,0.5-0.6,0.9-1.1,0.8c-0.5-0.1-0.9-0.6-0.8-1.1
		C89.8,80.4,90.3,80.1,90.8,80.1L90.8,80.1z M92.9,82.3c0.5,0.1,0.9,0.6,0.8,1.1c-0.1,0.5-0.6,0.9-1.1,0.8c-0.5-0.1-0.9-0.6-0.8-1.1
		C91.9,82.6,92.4,82.2,92.9,82.3L92.9,82.3z"/>
	<path class="st1" d="M85.4,99.3c0.1,0.2,0,0.5-0.3,0.6c-0.2,0.1-0.5,0-0.6-0.3l-3.9-10.1c-2-2.4-5.9-1.2-5.9-1.2
		c-0.3,0.1-0.5-0.1-0.6-0.3c-0.1-0.3,0.1-0.5,0.3-0.6c0,0,3.1-1,5.5,0.4l-1-2.6c-0.1-0.2,0-0.5,0.3-0.6c0.2-0.1,0.5,0,0.6,0.3l1,2.6
		c0.9-2.6,3.9-4,3.9-4c0.2-0.1,0.5,0,0.6,0.2c0.1,0.2,0,0.5-0.2,0.6c0,0-3.7,1.7-3.6,4.8L85.4,99.3L85.4,99.3z"/>
	<path class="st4" d="M76.7,84.4c0.5-0.2,1,0.1,1.2,0.5c0.2,0.5-0.1,1-0.5,1.2c-0.5,0.2-1-0.1-1.2-0.5
		C75.9,85.1,76.2,84.6,76.7,84.4L76.7,84.4z M78.2,81.9c0.5-0.2,1,0.1,1.2,0.5c0.2,0.5-0.1,1-0.5,1.2c-0.5,0.2-1-0.1-1.2-0.5
		C77.5,82.6,77.7,82,78.2,81.9L78.2,81.9z M81.1,82.7c0.5-0.2,1,0.1,1.2,0.5c0.2,0.5-0.1,1-0.5,1.2c-0.5,0.2-1-0.1-1.2-0.5
		C80.3,83.4,80.6,82.9,81.1,82.7L81.1,82.7z"/>
	<path class="st1" d="M82.9,100.7c0.2,0.2,0.2,0.5,0.1,0.7c-0.2,0.2-0.5,0.2-0.7,0.1l-8.6-6.9c-3-1.1-5.8,2-5.8,2
		c-0.2,0.2-0.5,0.2-0.7,0c-0.2-0.2-0.2-0.5,0-0.7c0,0,2.2-2.4,5.1-2.5l-2.2-1.8c-0.2-0.2-0.2-0.5-0.1-0.7c0.2-0.2,0.5-0.2,0.7-0.1
		l2.2,1.8c-0.5-2.8,1.4-5.5,1.4-5.5c0.2-0.2,0.4-0.3,0.7-0.1c0.2,0.2,0.3,0.4,0.1,0.7c0,0-2.4,3.4-0.7,6.1L82.9,100.7L82.9,100.7z"
		/>
	<path class="st4" d="M67.6,92c0.3-0.4,0.9-0.5,1.4-0.1c0.4,0.3,0.5,0.9,0.1,1.4c-0.3,0.4-0.9,0.5-1.4,0.1
		C67.4,93,67.3,92.4,67.6,92L67.6,92z M67.7,89c0.3-0.4,0.9-0.5,1.4-0.1c0.4,0.3,0.5,0.9,0.1,1.4c-0.3,0.4-0.9,0.5-1.4,0.1
		C67.4,90,67.4,89.4,67.7,89L67.7,89z M70.6,88.3c0.3-0.4,0.9-0.5,1.4-0.1c0.4,0.3,0.5,0.9,0.1,1.4c-0.3,0.4-0.9,0.5-1.4,0.1
		C70.4,89.3,70.3,88.7,70.6,88.3L70.6,88.3z"/>
	<path class="st1" d="M81.6,103.3c0.3,0,0.4,0.3,0.4,0.5c0,0.3-0.3,0.4-0.5,0.4l-10.7-1.7c-3.1,0.6-4,4.5-4,4.5
		c-0.1,0.3-0.3,0.4-0.6,0.4c-0.3-0.1-0.4-0.3-0.4-0.6c0,0,0.7-3.2,3.1-4.6l-2.7-0.4c-0.3,0-0.4-0.3-0.4-0.5c0-0.3,0.3-0.4,0.5-0.4
		l2.7,0.4c-1.8-2.1-1.5-5.3-1.5-5.3c0-0.3,0.3-0.5,0.5-0.4c0.3,0,0.5,0.3,0.4,0.5c0,0-0.4,4,2.4,5.5L81.6,103.3L81.6,103.3z"/>
	<path class="st4" d="M64.3,103.4c0.1-0.5,0.6-0.9,1.1-0.8c0.5,0.1,0.9,0.6,0.8,1.1c-0.1,0.5-0.6,0.9-1.1,0.8
		C64.6,104.4,64.2,103.9,64.3,103.4L64.3,103.4z M62.9,100.8c0.1-0.5,0.6-0.9,1.1-0.8c0.5,0.1,0.9,0.6,0.8,1.1
		c-0.1,0.5-0.6,0.9-1.1,0.8C63.2,101.8,62.8,101.3,62.9,100.8L62.9,100.8z M65.1,98.7c0.1-0.5,0.6-0.9,1.1-0.8
		c0.5,0.1,0.9,0.6,0.8,1.1c-0.1,0.5-0.6,0.9-1.1,0.8C65.3,99.7,65,99.2,65.1,98.7L65.1,98.7z"/>
	<path class="st1" d="M81.5,106.2c0.2-0.1,0.5,0,0.6,0.3c0.1,0.2,0,0.5-0.3,0.6L71.6,111c-2.4,2.1-1.2,6-1.2,6
		c0.1,0.2-0.1,0.5-0.3,0.6c-0.2,0.1-0.5-0.1-0.6-0.3c0,0-1-3.2,0.4-5.6l-2.7,1c-0.2,0.1-0.5,0-0.6-0.3c-0.1-0.2,0-0.5,0.3-0.6l2.7-1
		c-2.7-0.9-4-3.9-4-3.9c-0.1-0.2,0-0.5,0.2-0.6c0.2-0.1,0.5,0,0.6,0.2c0,0,1.7,3.8,4.9,3.7L81.5,106.2L81.5,106.2z"/>
	<path class="st4" d="M66.4,115c-0.2-0.5,0.1-1.1,0.6-1.2c0.5-0.2,1.1,0.1,1.2,0.6c0.2,0.5-0.1,1.1-0.6,1.2
		C67.1,115.8,66.6,115.5,66.4,115L66.4,115z M63.8,113.5c-0.2-0.5,0.1-1.1,0.6-1.2c0.5-0.2,1.1,0.1,1.2,0.6c0.2,0.5-0.1,1.1-0.6,1.2
		C64.6,114.2,64,114,63.8,113.5L63.8,113.5z M64.7,110.6c-0.2-0.5,0.1-1.1,0.6-1.2c0.5-0.2,1.1,0.1,1.2,0.6c0.2,0.5-0.1,1.1-0.6,1.2
		C65.4,111.3,64.9,111.1,64.7,110.6L64.7,110.6z"/>
	<path class="st1" d="M83.1,108.6c0.2-0.2,0.5-0.2,0.7-0.1c0.2,0.2,0.2,0.5,0.1,0.7l-6.8,8.4c-1,3,1.9,5.7,1.9,5.7
		c0.2,0.2,0.2,0.5,0,0.7c-0.2,0.2-0.5,0.2-0.7,0c0,0-2.4-2.2-2.5-5l-1.7,2.2c-0.2,0.2-0.5,0.2-0.7,0.1c-0.2-0.2-0.2-0.5-0.1-0.7
		l1.7-2.2c-2.7,0.5-5.4-1.4-5.4-1.4c-0.2-0.1-0.3-0.4-0.1-0.7s0.4-0.3,0.7-0.1c0,0,3.3,2.3,6,0.7L83.1,108.6L83.1,108.6z"/>
	<path class="st4" d="M74.6,123.6c-0.4-0.3-0.5-0.9-0.1-1.3c0.3-0.4,0.9-0.5,1.3-0.1c0.4,0.3,0.5,0.9,0.1,1.3
		C75.6,123.9,75,123.9,74.6,123.6L74.6,123.6z M71.6,123.5c-0.4-0.3-0.5-0.9-0.1-1.3c0.3-0.4,0.9-0.5,1.3-0.1
		c0.4,0.3,0.5,0.9,0.1,1.3C72.6,123.8,72,123.8,71.6,123.5L71.6,123.5z M70.9,120.6c-0.4-0.3-0.5-0.9-0.1-1.3
		c0.3-0.4,0.9-0.5,1.3-0.1c0.4,0.3,0.5,0.9,0.1,1.3C71.9,120.9,71.3,121,70.9,120.6L70.9,120.6z"/>
	<path class="st1" d="M85.6,110.1c0-0.3,0.3-0.4,0.5-0.4c0.3,0,0.4,0.3,0.4,0.5l-1.7,10.9c0.6,3.1,4.6,4.1,4.6,4.1
		c0.3,0.1,0.4,0.3,0.4,0.6c-0.1,0.3-0.3,0.4-0.6,0.4c0,0-3.2-0.7-4.7-3.1l-0.4,2.8c0,0.3-0.3,0.4-0.5,0.4c-0.3,0-0.4-0.3-0.4-0.5
		l0.4-2.8c-2.2,1.8-5.4,1.5-5.4,1.5c-0.3,0-0.5-0.3-0.4-0.5c0-0.3,0.3-0.5,0.5-0.4c0,0,4.1,0.4,5.6-2.4L85.6,110.1L85.6,110.1z"/>
	<path class="st4" d="M85.7,127.6c-0.5-0.1-0.9-0.6-0.8-1.1c0.1-0.5,0.6-0.9,1.1-0.8c0.5,0.1,0.9,0.6,0.8,1.1
		C86.7,127.3,86.2,127.7,85.7,127.6L85.7,127.6z M83.1,129.1c-0.5-0.1-0.9-0.6-0.8-1.1c0.1-0.5,0.6-0.9,1.1-0.8
		c0.5,0.1,0.9,0.6,0.8,1.1C84.1,128.8,83.6,129.1,83.1,129.1L83.1,129.1z M81,126.9c-0.5-0.1-0.9-0.6-0.8-1.1
		c0.1-0.5,0.6-0.9,1.1-0.8c0.5,0.1,0.9,0.6,0.8,1.1C82,126.6,81.5,126.9,81,126.9L81,126.9z"/>
	<path class="st1" d="M88.5,109.9c-0.1-0.2,0-0.5,0.3-0.6c0.2-0.1,0.5,0,0.6,0.3l3.9,10.1c2,2.4,5.9,1.2,5.9,1.2
		c0.3-0.1,0.5,0.1,0.6,0.3c0.1,0.3-0.1,0.5-0.3,0.6c0,0-3.1,1-5.5-0.4l1,2.6c0.1,0.2,0,0.5-0.3,0.6c-0.2,0.1-0.5,0-0.6-0.3l-1-2.6
		c-0.9,2.6-3.9,4-3.9,4c-0.2,0.1-0.5,0-0.6-0.2c-0.1-0.2,0-0.5,0.2-0.6c0,0,3.7-1.7,3.6-4.8L88.5,109.9L88.5,109.9z"/>
	<path class="st4" d="M97.2,124.8c-0.5,0.2-1-0.1-1.2-0.5c-0.2-0.5,0.1-1,0.5-1.2c0.5-0.2,1,0.1,1.2,0.5
		C97.9,124.1,97.7,124.6,97.2,124.8L97.2,124.8z M95.7,127.3c-0.5,0.2-1-0.1-1.2-0.5c-0.2-0.5,0.1-1,0.5-1.2c0.5-0.2,1,0.1,1.2,0.5
		C96.4,126.6,96.1,127.2,95.7,127.3L95.7,127.3z M92.8,126.5c-0.5,0.2-1-0.1-1.2-0.5c-0.2-0.5,0.1-1,0.5-1.2c0.5-0.2,1,0.1,1.2,0.5
		C93.5,125.8,93.3,126.3,92.8,126.5L92.8,126.5z"/>
	<path class="st1" d="M91,108.5c-0.2-0.2-0.2-0.5-0.1-0.7c0.2-0.2,0.5-0.2,0.7-0.1l8.6,6.9c3,1.1,5.8-2,5.8-2c0.2-0.2,0.5-0.2,0.7,0
		c0.2,0.2,0.2,0.5,0,0.7c0,0-2.2,2.4-5.1,2.5l2.2,1.8c0.2,0.2,0.2,0.5,0.1,0.7c-0.2,0.2-0.5,0.2-0.7,0.1l-2.2-1.8
		c0.5,2.8-1.4,5.5-1.4,5.5c-0.2,0.2-0.4,0.3-0.7,0.1c-0.2-0.2-0.3-0.4-0.1-0.7c0,0,2.4-3.4,0.7-6.1L91,108.5L91,108.5z"/>
	<path class="st4" d="M106.3,117.2c-0.3,0.4-0.9,0.5-1.4,0.1c-0.4-0.3-0.5-0.9-0.1-1.4c0.3-0.4,0.9-0.5,1.4-0.1
		C106.5,116.2,106.6,116.8,106.3,117.2L106.3,117.2z M106.2,120.2c-0.3,0.4-0.9,0.5-1.4,0.1c-0.4-0.3-0.5-0.9-0.1-1.4
		c0.3-0.4,0.9-0.5,1.4-0.1C106.5,119.2,106.5,119.8,106.2,120.2L106.2,120.2z M103.2,120.9c-0.3,0.4-0.9,0.5-1.4,0.1
		c-0.4-0.3-0.5-0.9-0.1-1.4c0.3-0.4,0.9-0.5,1.4-0.1C103.5,119.9,103.6,120.5,103.2,120.9L103.2,120.9z"/>
	<path class="st1" d="M92.3,105.9c-0.3,0-0.4-0.3-0.4-0.5c0-0.3,0.3-0.4,0.5-0.4l10.7,1.7c3.1-0.6,4-4.5,4-4.5
		c0.1-0.3,0.3-0.4,0.6-0.4c0.3,0.1,0.4,0.3,0.4,0.6c0,0-0.7,3.2-3.1,4.6l2.7,0.4c0.3,0,0.4,0.3,0.4,0.5c0,0.3-0.3,0.4-0.5,0.4
		l-2.7-0.4c1.8,2.1,1.5,5.3,1.5,5.3c0,0.3-0.3,0.5-0.5,0.4c-0.3,0-0.5-0.3-0.4-0.5c0,0,0.4-4-2.4-5.5L92.3,105.9L92.3,105.9z"/>
	<path class="st4" d="M109.6,105.8c-0.1,0.5-0.6,0.9-1.1,0.8c-0.5-0.1-0.9-0.6-0.8-1.1c0.1-0.5,0.6-0.9,1.1-0.8
		C109.3,104.8,109.7,105.3,109.6,105.8L109.6,105.8z M111,108.4c-0.1,0.5-0.6,0.9-1.1,0.8c-0.5-0.1-0.9-0.6-0.8-1.1
		c0.1-0.5,0.6-0.9,1.1-0.8C110.7,107.4,111.1,107.9,111,108.4L111,108.4z M108.8,110.5c-0.1,0.5-0.6,0.9-1.1,0.8
		c-0.5-0.1-0.9-0.6-0.8-1.1c0.1-0.5,0.6-0.9,1.1-0.8C108.6,109.5,108.9,109.9,108.8,110.5L108.8,110.5z"/>
	<path class="st1" d="M85.3,87.1c-0.2-0.2-0.3-0.4-0.1-0.7c0.2-0.2,0.4-0.3,0.7-0.1c0.7,0.5,1.5,1.3,2.2,2.5
		c0.6,1.2,1.1,2.8,1.2,4.9c0,0.3-0.2,0.5-0.5,0.5c-0.3,0-0.5-0.2-0.5-0.5c0-1.9-0.5-3.4-1-4.5C86.6,88.2,85.9,87.5,85.3,87.1
		L85.3,87.1z"/>
	<path class="st1" d="M93.7,87.6c0.2-0.1,0.5,0.1,0.6,0.3c0.1,0.2-0.1,0.5-0.3,0.6c-0.7,0.2-1.6,0.7-2.5,1.5
		c-0.9,0.8-1.7,2.1-2.4,3.9c-0.1,0.2-0.4,0.4-0.6,0.3c-0.2-0.1-0.4-0.4-0.3-0.6c0.7-2,1.6-3.4,2.6-4.3
		C91.8,88.3,92.9,87.8,93.7,87.6L93.7,87.6z"/>
	<path class="st1" d="M76.8,90.2c-0.3,0-0.4-0.3-0.4-0.5c0-0.3,0.3-0.4,0.5-0.4c0.8,0.1,1.9,0.4,3.1,1.1c1.1,0.7,2.4,1.8,3.4,3.7
		c0.1,0.2,0.1,0.5-0.2,0.6c-0.2,0.1-0.5,0.1-0.6-0.2c-1-1.7-2.1-2.7-3.1-3.3C78.4,90.6,77.5,90.3,76.8,90.2L76.8,90.2z"/>
	<path class="st1" d="M84.2,86.5c0.2-0.2,0.5-0.2,0.7,0c0.2,0.2,0.2,0.5,0,0.7c-0.5,0.5-1.1,1.4-1.4,2.5c-0.3,1.2-0.5,2.7-0.1,4.6
		c0,0.3-0.1,0.5-0.4,0.6c-0.3,0-0.5-0.1-0.6-0.4c-0.4-2.1-0.3-3.7,0.1-5C83,88,83.7,87.1,84.2,86.5L84.2,86.5z"/>
	<path class="st1" d="M92.3,102.5c-0.2,0.1-0.5-0.1-0.6-0.3c-0.1-0.3,0.1-0.5,0.3-0.6l10.5-3.3c0.5-0.3,0.8-0.8,1.1-1.2
		c0.3-0.6,0.5-1.2,0.6-1.8c0.1-0.3,0.1-0.7,0.1-1l0,0c0-0.4,0-0.7,0-1c0-0.2,0-0.3-0.1-0.4c0-0.1,0-0.2-0.1-0.3c0-0.1,0-0.1,0-0.2
		c-0.1-0.2,0.1-0.5,0.3-0.6c0.2-0.1,0.5,0.1,0.6,0.3l0,0l0,0l0,0l0,0c0,0,0,0.1,0,0.2c0,0.1,0,0.2,0.1,0.3c0,0.1,0,0.3,0.1,0.5
		c0,0.3,0.1,0.7,0,1.2l0,0c0,0.3,0,0.7-0.1,1.1c-0.1,0.7-0.3,1.4-0.7,2.1c0,0.1-0.1,0.1-0.1,0.2l2.7-0.9c0.3-0.1,0.5,0.1,0.6,0.3
		c0.1,0.3-0.1,0.5-0.3,0.6l-2.7,0.9c0.5,0.2,1,0.5,1.4,0.9c0.4,0.3,0.8,0.7,1.1,1.1l0,0c0.4,0.5,0.7,1,0.9,1.4
		c0.3,0.5,0.4,0.9,0.4,0.9c0.1,0.2-0.1,0.5-0.3,0.6c-0.3,0.1-0.5-0.1-0.6-0.3c0,0-0.1-0.3-0.4-0.7c-0.2-0.3-0.5-0.8-0.8-1.2l0,0
		c-0.3-0.3-0.6-0.7-0.9-1c-0.4-0.3-0.8-0.6-1.3-0.8c-0.4-0.2-0.8-0.2-1.3-0.3L92.3,102.5L92.3,102.5z"/>
	<path class="st4" d="M107.9,94.5c0.2,0.5-0.1,1-0.6,1.2c-0.5,0.2-1-0.1-1.2-0.6c-0.2-0.5,0.1-1,0.6-1.2
		C107.2,93.8,107.7,94,107.9,94.5L107.9,94.5z M110.4,96.3c0.2,0.5-0.1,1-0.6,1.2c-0.5,0.2-1-0.1-1.2-0.6c-0.2-0.5,0.1-1,0.6-1.2
		C109.7,95.5,110.2,95.8,110.4,96.3L110.4,96.3z M109.3,99.1c0.2,0.5-0.1,1-0.6,1.2c-0.5,0.2-1-0.1-1.2-0.6c-0.2-0.5,0.1-1,0.6-1.2
		C108.6,98.3,109.2,98.6,109.3,99.1L109.3,99.1z"/>
	<path class="st1" d="M101.7,94.4c0-0.3,0.3-0.4,0.5-0.4c0.3,0,0.4,0.3,0.4,0.5c-0.1,0.8-0.5,1.9-1.3,3c-0.8,1.1-2,2.2-3.9,3.2
		c-0.2,0.1-0.5,0-0.6-0.2c-0.1-0.2,0-0.5,0.2-0.6c1.7-0.9,2.8-1.9,3.5-2.9C101.3,96.1,101.6,95.2,101.7,94.4L101.7,94.4z"/>
	<path class="st1" d="M105,102.1c0.2,0.2,0.2,0.5,0,0.7c-0.2,0.2-0.5,0.2-0.7,0c-0.5-0.5-1.3-1.1-2.4-1.5c-1.1-0.4-2.6-0.6-4.6-0.4
		c-0.3,0-0.5-0.1-0.5-0.4c0-0.3,0.1-0.5,0.4-0.5c2.1-0.3,3.7,0,5,0.4C103.5,100.8,104.4,101.5,105,102.1L105,102.1z"/>
	<path class="st1" d="M70.9,97.3c-0.2,0.1-0.5,0-0.6-0.2c-0.1-0.2,0-0.5,0.2-0.6c0.8-0.3,1.9-0.7,3.2-0.6c1.3,0,3,0.4,4.8,1.4
		c0.2,0.1,0.3,0.4,0.2,0.6c-0.1,0.2-0.4,0.3-0.6,0.2c-1.7-0.9-3.2-1.3-4.4-1.3C72.6,96.7,71.6,97,70.9,97.3L70.9,97.3z"/>
	<path class="st1" d="M75.5,90.3c0.1-0.3,0.3-0.4,0.6-0.4c0.3,0.1,0.4,0.3,0.4,0.6c-0.2,0.7-0.2,1.7,0.1,2.9c0.3,1.2,0.9,2.5,2.2,4
		c0.2,0.2,0.1,0.5,0,0.7c-0.2,0.2-0.5,0.1-0.7,0c-1.4-1.6-2.1-3.1-2.4-4.4C75.3,92.2,75.4,91.1,75.5,90.3L75.5,90.3z"/>
	<path class="st1" d="M69.4,106.3c-0.2,0.2-0.4,0.3-0.7,0.1c-0.2-0.2-0.3-0.4-0.1-0.7c0.5-0.7,1.3-1.5,2.5-2.2
		c1.2-0.6,2.8-1.1,4.9-1.2c0.3,0,0.5,0.2,0.5,0.5c0,0.3-0.2,0.5-0.5,0.5c-1.9,0-3.4,0.5-4.5,1C70.5,104.9,69.9,105.7,69.4,106.3
		L69.4,106.3z"/>
	<path class="st1" d="M69.9,97.9c-0.1-0.2,0.1-0.5,0.3-0.6c0.2-0.1,0.5,0.1,0.6,0.3c0.2,0.7,0.7,1.6,1.5,2.5
		c0.8,0.9,2.1,1.7,3.9,2.4c0.2,0.1,0.4,0.4,0.3,0.6c-0.1,0.2-0.4,0.4-0.6,0.3c-2-0.7-3.4-1.6-4.3-2.6C70.7,99.7,70.2,98.7,69.9,97.9
		L69.9,97.9z"/>
	<path class="st1" d="M72.6,114.8c0,0.3-0.3,0.4-0.5,0.4c-0.3,0-0.4-0.3-0.4-0.5c0.1-0.8,0.4-1.9,1.1-3.1c0.7-1.1,1.8-2.4,3.7-3.4
		c0.2-0.1,0.5-0.1,0.6,0.2c0.1,0.2,0.1,0.5-0.2,0.6c-1.7,1-2.7,2.1-3.3,3.1C72.9,113.1,72.7,114.1,72.6,114.8L72.6,114.8z"/>
	<path class="st1" d="M68.8,107.3c-0.2-0.2-0.2-0.5,0-0.7c0.2-0.2,0.5-0.2,0.7,0c0.5,0.5,1.4,1.1,2.5,1.4c1.2,0.3,2.7,0.5,4.6,0.1
		c0.3,0,0.5,0.1,0.6,0.4c0,0.3-0.1,0.5-0.4,0.6c-2.1,0.4-3.7,0.3-5-0.1C70.4,108.5,69.5,107.9,68.8,107.3L68.8,107.3z"/>
	<path class="st1" d="M79.6,120.6c0.1,0.2,0,0.5-0.2,0.6c-0.2,0.1-0.5,0-0.6-0.2c-0.3-0.8-0.7-1.9-0.6-3.2c0-1.3,0.4-3,1.4-4.8
		c0.1-0.2,0.4-0.3,0.6-0.2c0.2,0.1,0.3,0.4,0.2,0.6c-0.9,1.7-1.3,3.2-1.3,4.4C79,119,79.3,119.9,79.6,120.6L79.6,120.6z"/>
	<path class="st1" d="M72.6,116c-0.3-0.1-0.4-0.3-0.4-0.6s0.3-0.4,0.6-0.4c0.7,0.2,1.7,0.2,2.9-0.1c1.2-0.3,2.5-0.9,4-2.2
		c0.2-0.2,0.5-0.1,0.7,0c0.2,0.2,0.1,0.5,0,0.7c-1.6,1.4-3.1,2.1-4.4,2.4C74.6,116.3,73.4,116.2,72.6,116L72.6,116z"/>
	<path class="st1" d="M88.6,122.1c0.2,0.2,0.3,0.4,0.1,0.7c-0.2,0.2-0.4,0.3-0.7,0.1c-0.7-0.5-1.5-1.3-2.2-2.5
		c-0.6-1.2-1.1-2.8-1.2-4.9c0-0.3,0.2-0.5,0.5-0.5c0.3,0,0.5,0.2,0.5,0.5c0,1.9,0.5,3.4,1,4.5C87.3,121,88,121.7,88.6,122.1
		L88.6,122.1z"/>
	<path class="st1" d="M80.2,121.6c-0.2,0.1-0.5-0.1-0.6-0.3c-0.1-0.2,0.1-0.5,0.3-0.6c0.7-0.2,1.6-0.7,2.5-1.5
		c0.9-0.8,1.7-2.1,2.4-3.9c0.1-0.2,0.4-0.4,0.6-0.3c0.2,0.1,0.4,0.4,0.3,0.6c-0.7,2-1.6,3.4-2.6,4.3C82.1,120.9,81,121.4,80.2,121.6
		L80.2,121.6z"/>
	<path class="st1" d="M97.1,118.9c0.3,0,0.4,0.3,0.4,0.5c0,0.3-0.3,0.4-0.5,0.4c-0.8-0.1-1.9-0.4-3.1-1.1c-1.1-0.7-2.4-1.8-3.4-3.7
		c-0.1-0.2-0.1-0.5,0.2-0.6c0.2-0.1,0.5-0.1,0.6,0.2c1,1.7,2.1,2.7,3.1,3.3C95.5,118.6,96.4,118.9,97.1,118.9L97.1,118.9z"/>
	<path class="st1" d="M89.6,122.7c-0.2,0.2-0.5,0.2-0.7,0c-0.2-0.2-0.2-0.5,0-0.7c0.5-0.5,1.1-1.4,1.4-2.5c0.3-1.2,0.5-2.7,0.1-4.6
		c0-0.3,0.1-0.5,0.4-0.6c0.3,0,0.5,0.1,0.6,0.4c0.4,2.1,0.3,3.7-0.1,5C90.9,121.2,90.2,122.1,89.6,122.7L89.6,122.7z"/>
	<path class="st1" d="M103,111.9c0.2-0.1,0.5,0,0.6,0.2c0.1,0.2,0,0.5-0.2,0.6c-0.8,0.3-1.9,0.7-3.2,0.6c-1.3,0-3-0.4-4.8-1.4
		c-0.2-0.1-0.3-0.4-0.2-0.6c0.1-0.2,0.4-0.3,0.6-0.2c1.7,0.9,3.2,1.3,4.4,1.3C101.3,112.5,102.3,112.2,103,111.9L103,111.9z"/>
	<path class="st1" d="M98.3,118.9c-0.1,0.3-0.3,0.4-0.6,0.4c-0.3-0.1-0.4-0.3-0.4-0.6c0.2-0.7,0.2-1.7-0.1-2.9
		c-0.3-1.2-0.9-2.5-2.2-4c-0.2-0.2-0.1-0.5,0-0.7c0.2-0.2,0.5-0.1,0.7,0c1.4,1.6,2.1,3.1,2.4,4.4C98.6,117,98.5,118.1,98.3,118.9
		L98.3,118.9z"/>
	<path class="st1" d="M104.5,102.9c0.2-0.2,0.4-0.3,0.7-0.1c0.2,0.2,0.3,0.4,0.1,0.7c-0.5,0.7-1.3,1.5-2.5,2.2
		c-1.2,0.6-2.8,1.1-4.9,1.2c-0.3,0-0.5-0.2-0.5-0.5c0-0.3,0.2-0.5,0.5-0.5c1.9,0,3.4-0.5,4.5-1C103.4,104.2,104,103.5,104.5,102.9
		L104.5,102.9z"/>
	<path class="st1" d="M104,111.3c0.1,0.2-0.1,0.5-0.3,0.6c-0.2,0.1-0.5-0.1-0.6-0.3c-0.2-0.7-0.7-1.6-1.5-2.5
		c-0.8-0.9-2.1-1.7-3.9-2.4c-0.2-0.1-0.4-0.4-0.3-0.6c0.1-0.2,0.4-0.4,0.6-0.3c2,0.7,3.4,1.6,4.3,2.6
		C103.2,109.5,103.7,110.5,104,111.3L104,111.3z"/>
	<path class="st1" d="M90.8,100.4c-0.2,0.2-0.5,0.2-0.7,0.1c-0.2-0.2-0.2-0.5-0.1-0.7l7.1-8.4c0.2-0.5,0.3-1.1,0.2-1.6
		c0-0.7-0.2-1.3-0.5-1.8c-0.1-0.3-0.3-0.6-0.5-0.9l0,0c-0.2-0.3-0.4-0.6-0.6-0.9c-0.1-0.1-0.2-0.2-0.3-0.3c-0.1-0.1-0.1-0.2-0.2-0.2
		c-0.1-0.1-0.1-0.1-0.1-0.1c-0.2-0.2-0.2-0.5,0-0.7c0.2-0.2,0.5-0.2,0.7-0.1l0,0l0,0l0,0l0,0c0,0,0.1,0.1,0.2,0.2
		c0.1,0.1,0.1,0.1,0.2,0.3c0.1,0.1,0.2,0.2,0.3,0.4c0.2,0.3,0.4,0.6,0.7,1l0,0c0.2,0.3,0.4,0.6,0.5,1c0.3,0.7,0.5,1.4,0.5,2.2
		c0,0.1,0,0.1,0,0.2l1.8-2.2c0.2-0.2,0.5-0.2,0.7-0.1c0.2,0.2,0.2,0.5,0.1,0.7l-1.8,2.2c0.6-0.1,1.1-0.1,1.7,0
		c0.5,0.1,1,0.2,1.5,0.4l0,0c0.6,0.2,1.1,0.5,1.5,0.7c0.5,0.3,0.8,0.5,0.8,0.5c0.2,0.2,0.2,0.5,0.1,0.7c-0.2,0.2-0.5,0.2-0.7,0.1
		c0,0-0.2-0.2-0.7-0.4c-0.4-0.2-0.8-0.4-1.3-0.6l0,0c-0.4-0.1-0.8-0.3-1.3-0.3c-0.5-0.1-1-0.1-1.5,0c-0.4,0.1-0.8,0.2-1.2,0.5
		L90.8,100.4L90.8,100.4z"/>
	<path class="st4" d="M99.8,85.3c0.4,0.3,0.5,1,0.1,1.4c-0.3,0.4-1,0.5-1.4,0.1c-0.4-0.3-0.5-1-0.1-1.4C98.8,85,99.4,85,99.8,85.3
		L99.8,85.3z M102.8,85.4c0.4,0.3,0.5,1,0.1,1.4c-0.3,0.4-1,0.5-1.4,0.1c-0.4-0.3-0.5-1-0.1-1.4C101.8,85.2,102.4,85.1,102.8,85.4
		L102.8,85.4z M103.5,88.4c0.4,0.3,0.5,1,0.1,1.4c-0.3,0.4-1,0.5-1.4,0.1c-0.4-0.3-0.5-1-0.1-1.4C102.4,88.1,103.1,88.1,103.5,88.4
		L103.5,88.4z"/>
	<path class="st1" d="M94.5,88.5c-0.1-0.2,0-0.5,0.3-0.6c0.2-0.1,0.5,0,0.6,0.3c0.3,0.8,0.6,1.9,0.6,3.2c-0.1,1.3-0.5,3-1.5,4.8
		c-0.1,0.2-0.4,0.3-0.6,0.2c-0.2-0.1-0.3-0.4-0.2-0.6c1-1.7,1.4-3.1,1.4-4.4C95,90.1,94.8,89.2,94.5,88.5L94.5,88.5z"/>
	<path class="st1" d="M101.4,93.3c0.3,0.1,0.4,0.3,0.3,0.6c-0.1,0.3-0.3,0.4-0.6,0.3c-0.7-0.2-1.7-0.3-2.9,0
		c-1.2,0.3-2.6,0.9-4.1,2.1c-0.2,0.2-0.5,0.1-0.7-0.1c-0.2-0.2-0.1-0.5,0.1-0.7c1.6-1.4,3.1-2,4.5-2.3
		C99.4,93,100.6,93.1,101.4,93.3L101.4,93.3z"/>
	<text transform="matrix(1 0 0 1 125 123.7744)" class="st1 st5 st6 st7">MÉDICA PSIQUIATRA| CRM - SP 96072</text>
</g>
</svg>
