<?xml version="1.0" encoding="utf-8"?>
<!-- Generator: Adobe Illustrator 22.1.0, SVG Export Plug-In . SVG Version: 6.00 Build 0)  -->
<svg version="1.1" id="Capa_1" xmlns="http://www.w3.org/2000/svg" xmlns:xlink="http://www.w3.org/1999/xlink" x="0px" y="0px"
	 viewBox="0 0 425.2 425.2" style="enable-background:new 0 0 425.2 425.2;" xml:space="preserve">
<style type="text/css">
	.st0{display:none;fill:#1A2E39;}
	.st1{fill:#DADADA;}
	.st2{fill:#D6AE11;}
	.st3{fill:#F5BE94;}
	.st4{fill:#E5C063;}
	.st5{fill:#5EBFBC;}
	.st6{fill:#49BED8;}
	.st7{fill:#F7D8D4;}
	.st8{fill:#F5BD94;}
	.st9{fill:#E29D82;}
	.st10{fill:#5F3419;}
	.st11{fill:#EDAA8B;}
	.st12{fill:#FFFFFF;}
	.st13{fill:#C4D4DE;}
	.st14{fill:#C9E8FB;}
	.st15{fill:#F3B092;}
	.st16{fill:#F7BA93;}
	.st17{fill:#1179B0;}
	.st18{opacity:0.5;fill:#FFFFFF;}
	.st19{fill:#2B90B0;}
	.st20{fill:#EDEDED;}
	.st21{fill:none;stroke:#FFFFFF;stroke-width:2;stroke-miterlimit:10;}
	.st22{fill:#F8BB94;}
	.st23{fill:#DEA886;}
	.st24{fill:none;stroke:#5EBFBC;stroke-miterlimit:10;}
</style>
<rect x="0" y="0" class="st0" width="425.2" height="425.2"/>
<ellipse class="st1" cx="212.6" cy="384.9" rx="157.9" ry="19"/>
<g>
	<g>
		<path class="st2" d="M320,366.7c12.7-65.9,8.3-184.2,8.3-184.2H189.7c-3.4,56.3,4.1,164.8,5.5,184.2H320z"/>
		<path class="st3" d="M244.3,289.8l-35.4,10.9c0,0-19.2,5.4-19.2,21.1l0.6,31.9H339l-1.7-27.3c-1.6-21.4-17.2-25.6-17.2-25.6
			l-41.7-11H244.3z"/>
		<path class="st4" d="M317.6,366.7h11.1c3.7-24.9,28.1-199.5-6.1-253.3L288.5,134l24.4,40.5C312.9,174.5,332.5,225.5,317.6,366.7z"
			/>
		<path class="st4" d="M205.3,366.7c-2.8-25.3-14.4-140.9-4.6-208.7l-7.3-35.5c-24.8,48-9,213.3-5.8,244.2H205.3z"/>
		<g>
			<g>
				<path class="st5" d="M176,384.9h34l7.5-21.4c29.7-50-10.1-62.6-10.1-62.6c-22.6,4.9-24.1,23-24.1,23L176,384.9z"/>
			</g>
		</g>
		<polygon class="st3" points="207.2,384.2 204.1,350.3 316.1,350.3 309.5,384.2 		"/>
		<polygon class="st6" points="207.2,384.2 204.1,350.3 316.1,350.3 309.5,384.2 		"/>
		<rect x="244.1" y="257.2" class="st3" width="34.2" height="32.9"/>
		<path class="st7" d="M263.8,273.4c-5.2-1.3-17.2-0.9-19.7-5.9V257h34.2v27.3C273.4,278.8,271,275.2,263.8,273.4z"/>
		<path class="st3" d="M260,108.5c48.1,0,59.8,40.4,57.3,85.9c-2.2,39.8-22.9,52.2-40.7,63.4c-7.8,4.9-15.1,6.6-24.1,6.3
			c-9,0.3-9.4-2-17.6-6.3c-24.9-13.1-37.6-37.7-42.5-64.2C184.4,148.7,212,108.5,260,108.5z"/>
		<g>
			<g>
				<path class="st8" d="M314.1,216c6.6,2.2,14.3-3.1,17.2-11.9c2.9-8.8,0-17.7-6.6-19.9c-6.6-2.2-14.3,3.1-17.2,11.9
					C304.5,204.9,307.5,213.8,314.1,216z"/>
				<path class="st9" d="M313.8,206.9c2-0.8,1.6-1.8,1.6-3.5c0-1.3,0.4-2.4,1.1-3.5c0.7-1.2,1.6-1.4,2.6-1.2
					c0.7-0.2,1.6-0.2,2.4-0.2c2.5,0.1,3.3-1,2.6-3.7c-0.8-3.1-4.3-4-7.5-4c-1.3,0-2-0.9-0.3-1.8c5.2-2.7,10.2,1.4,11,6.7
					c0.3,1.9-0.2,4.1-1.9,5.1c-0.1,0-0.2,0.1-0.5,0.1c-0.8,1.7-2.3,2.9-3.1,4.7c-0.1,0.3-0.3,0.5-0.5,0.6c-0.2,0.7-0.5,1.5-0.8,2.1
					c-1.1,2-3.7,0.7-5.4,1.3C313.1,210.4,312,207.7,313.8,206.9z"/>
			</g>
		</g>
		<g>
			<path class="st10" d="M270.2,184.4c0,5,2.6,9.1,5.9,9.1c3.2,0,5.9-4.1,5.9-9.1c0-5-2.6-9.1-5.9-9.1
				C272.9,175.3,270.2,179.4,270.2,184.4z"/>
			<path class="st10" d="M216.6,184.4c0,5,2.6,9.1,5.9,9.1c3.2,0,5.9-4.1,5.9-9.1c0-5-2.6-9.1-5.9-9.1
				C219.2,175.3,216.6,179.4,216.6,184.4z"/>
		</g>
		<g>
			<g>
				<g>
					<path class="st2" d="M264.4,167.7c0,0,13.4-4.6,31,1.3l0.5-2.7c0,0-5.9-9.7-32.3-5.2L264.4,167.7z"/>
				</g>
			</g>
		</g>
		<g>
			<g>
				<g>
					<path class="st2" d="M237.9,167.7c0,0-13.4-4.6-31,1.3l-0.5-2.7c0,0,5.9-9.7,32.3-5.2L237.9,167.7z"/>
				</g>
			</g>
		</g>
		<g>
			<g>
				<path class="st11" d="M245.8,185.3c-1.1,4.5-2.2,8.9-3.9,13.2c-1.3,3.2-3.9,6.1-4.1,9.6c-0.3,7,12.8,5.6,16.7,5.2
					c0.8-0.1,0.9-1.4,0-1.3c-4.5,0.4-18.3,1.7-14.6-6.5c1.2-2.6,2.7-4.9,3.8-7.6c1.5-3.9,2.5-8.1,3.5-12.1
					C247.3,184.8,246,184.5,245.8,185.3L245.8,185.3z"/>
			</g>
		</g>
		<g>
			<path class="st12" d="M269.9,224.7c-4.8,10.2-16,17.6-34.3,11.4c0,0,2.1-4.7-0.9-10.1C234.6,226,248.6,228.3,269.9,224.7"/>
		</g>
		<path class="st4" d="M300,95.2c0,0,3,21.6-16.6,36.5c-8.1-2.7-54.6-12-73,7.4c0,0-25.9,23.4-14.7,67.8c0,0-20.4-36.8-3-84.8
			c2.3-6.3,5-11.8,9.2-17.2c9.4-12.1,22.1-20.6,37.1-24c15.2-3.5,32.7-5.6,46.9,1.8c2.8,1.5,5.9,3.6,8.3,5.7
			C295.3,89.4,300.2,93.7,300,95.2z"/>
		<path class="st4" d="M300,95.2l-11,29.4c0,0-7.2,8.6,14,27.3c0,0,14.3,19.1,9.9,47c0,0,4.1-17.6,18.3-10.8
			C331.2,188.2,346.7,112,300,95.2z"/>
		<polygon class="st3" points="295.9,112.4 288.5,134 283.5,131.7 		"/>
		<path class="st5" d="M238,291.7l-30.6,9.1c0,0-10.4,8-6.8,40.4l0.9,9.9l2.8,33.9h110.8l12.5-61.6c2.9-14.4-7.7-22.4-7.7-22.4
			l-34.4-9.1l-31.3,23L238,291.7z"/>
		<path class="st12" d="M284.7,182.3c0,1.8-1.4,3.2-3.2,3.2c-1.8,0-3.2-1.4-3.2-3.2c0-1.8,1.4-3.2,3.2-3.2
			C283.3,179.1,284.7,180.5,284.7,182.3z"/>
		<path class="st12" d="M221,182.3c0,1.8-1.4,3.2-3.2,3.2c-1.8,0-3.2-1.4-3.2-3.2c0-1.8,1.4-3.2,3.2-3.2
			C219.6,179.1,221,180.5,221,182.3z"/>
		<path class="st5" d="M313.6,384.9l-7.9-52.2c-1.2-11.5-1.8-29.4,13.9-32c16.9,3.1,19.4,18.9,19.4,18.9l3,31.4l3.5,33.8H313.6z"/>
		<polygon class="st13" points="313.6,384.9 305.7,332.7 308.1,384.9 		"/>
		<polygon class="st13" points="198.2,384.9 204.3,384.9 200.6,341.2 		"/>
		<g>
			<path class="st12" d="M321.2,216.5c0,2.2-1.8,3.9-3.9,3.9c-2.2,0-3.9-1.8-3.9-3.9c0-2.2,1.8-3.9,3.9-3.9
				C319.4,212.5,321.2,214.3,321.2,216.5z"/>
			<path class="st14" d="M318.1,218.5L318.1,218.5c-1.7-0.5-2.7-1.9-2.8-3.7c0,0,0-0.1,0-0.1c0-0.7,0.2-1.4,0.5-1.9
				c-1.4,0.6-2.5,2-2.5,3.7c0,2.2,1.8,3.9,3.9,3.9c1.6,0,2.9-0.9,3.5-2.2C320,218.6,319,218.7,318.1,218.5z"/>
		</g>
		<g>
			<g>
				<path class="st15" d="M297.4,206.9c0,5-5.8,9.1-13,9.1c-7.2,0-13-4.1-13-9.1c0-5,5.8-9.1,13-9.1
					C291.5,197.8,297.4,201.9,297.4,206.9z"/>
			</g>
			<g>
				<path class="st15" d="M230.5,206.9c0,5-5.8,9.1-13,9.1c-7.2,0-13-4.1-13-9.1c0-5,5.8-9.1,13-9.1
					C224.7,197.8,230.5,201.9,230.5,206.9z"/>
			</g>
		</g>
		<rect x="266.3" y="347.2" class="st13" width="34.5" height="4.8"/>
	</g>
	<g>
		<polygon class="st16" points="82.5,325.7 92.1,346.1 96.5,327.1 		"/>
		<g>
			<path class="st17" d="M187.1,378.9c0,3.3-2.7,6.1-6.1,6.1H98.3c-3.3,0-6.1-2.7-6.1-6.1V222.1c0-3.3,2.7-6.1,6.1-6.1h82.8
				c3.3,0,6.1,2.7,6.1,6.1V378.9z"/>
			<rect x="92.2" y="230" class="st12" width="94.9" height="143"/>
			<g>
				<path class="st12" d="M149.4,223.6c0,0.8-0.6,1.4-1.4,1.4h-20.1c-0.8,0-1.4-0.6-1.4-1.4l0,0c0-0.8,0.6-1.4,1.4-1.4h20.1
					C148.7,222.1,149.4,222.8,149.4,223.6L149.4,223.6z"/>
				<path class="st12" d="M153,223.6c0,0.8-0.6,1.4-1.4,1.4c-0.8,0-1.4-0.6-1.4-1.4c0-0.8,0.6-1.4,1.4-1.4
					C152.3,222.1,153,222.8,153,223.6z"/>
			</g>
			<path class="st18" d="M94,217.9c-1.1,1.1-1.7,2.6-1.7,4.2v156.7c0,3.3,2.7,6.1,6.1,6.1h82.8c1.7,0,3.2-0.7,4.3-1.8L94,217.9z"/>
		</g>
		<g>
			<path class="st19" d="M168.1,300.5c0,15.7-12.7,28.4-28.4,28.4c-15.7,0-28.4-12.7-28.4-28.4c0-15.7,12.7-28.4,28.4-28.4
				C155.4,272.1,168.1,284.8,168.1,300.5z"/>
			<path class="st20" d="M147.5,325c-13.6,0-24.5-11-24.5-24.5c0-13.6,11-24.5,24.5-24.5c3.2,0,6.2,0.6,9,1.7
				c-4.7-3.5-10.6-5.6-16.9-5.6c-15.7,0-28.4,12.7-28.4,28.4c0,15.7,12.7,28.4,28.4,28.4c6.3,0,12.2-2.1,16.9-5.6
				C153.8,324.4,150.7,325,147.5,325z"/>
			<g>
				<g>
					<rect x="134.9" y="279.7" class="st12" width="9.5" height="41.6"/>
					<rect x="118.9" y="295.7" class="st12" width="41.6" height="9.5"/>
				</g>
			</g>
			<g>
				<path class="st21" d="M158.1,316c-1.3,1.5-2.8,2.9-4.4,4.1"/>
				<path class="st21" d="M148.9,278.3c13.7,5.7,19,23.1,10.8,35.5"/>
			</g>
		</g>
		<path class="st22" d="M187.1,274.6c0,0,5.7-6.3,12.8-4.2c0,0,4.4,3.2,1.1,9.9L187.1,303V274.6z"/>
		<path class="st22" d="M98.7,258.2c-3,2.6-7.6,2.3-10.2-0.7l-6.9-8c-2.6-3-2.3-7.6,0.7-10.2l0,0c3-2.6,7.6-2.3,10.2,0.7l6.9,8
			C102,251,101.7,255.6,98.7,258.2L98.7,258.2z"/>
		<g>
			<path class="st22" d="M100.5,332.6c-2.6,3.1-7.1,3.5-10.2,1l-5.5-4.5c-3.1-2.6-3.5-7.1-1-10.2l0,0c2.6-3.1,7.1-3.5,10.2-1
				l5.5,4.5C102.6,324.9,103,329.5,100.5,332.6L100.5,332.6z"/>
			<g>
				<g>
					<path class="st23" d="M100.5,332.6c0,0-0.2,0.4-0.7,1.1c-0.2,0.3-0.6,0.7-1.1,1.2c-0.2,0.2-0.5,0.4-0.8,0.6
						c-0.3,0.2-0.6,0.4-1,0.5c-0.4,0.1-0.8,0.3-1.2,0.4c-0.4,0.1-0.9,0.1-1.4,0.1c-0.9,0-2-0.1-3-0.5c-0.5-0.1-1-0.4-1.4-0.7
						c-0.2-0.1-0.5-0.3-0.7-0.4l-0.5-0.4c-0.7-0.6-1.5-1.1-2.2-1.7c-0.7-0.6-1.4-1.2-2.1-1.8l-0.5-0.5l-0.1-0.1l-0.1-0.1l-0.1-0.1
						l-0.2-0.2c-0.3-0.4-0.8-0.9-1-1.3c-0.6-0.9-0.9-1.9-1.1-2.8c-0.2-0.9-0.1-1.8,0-2.6c0.1-0.8,0.4-1.5,0.7-2
						c0.3-0.6,0.6-1,0.9-1.3c0.3-0.3,0.6-0.5,0.7-0.7c0.2-0.1,0.3-0.2,0.3-0.2s0,0.1-0.1,0.3c-0.1,0.2-0.2,0.5-0.3,0.9
						c-0.2,0.8-0.4,1.9-0.2,3.1c0.1,1.2,0.7,2.5,1.6,3.6c0.3,0.3,0.4,0.4,0.7,0.7l0.3,0.2l0.1,0.1l0.1,0.1l0,0c-0.1-0.1,0,0-0.1,0
						l0,0l0,0l0.5,0.4c0.7,0.6,1.5,1.1,2.2,1.7c0.7,0.6,1.4,1.2,2.1,1.8l0.5,0.5c0.2,0.1,0.3,0.2,0.4,0.3c0.3,0.2,0.5,0.5,0.9,0.6
						c0.6,0.4,1.3,0.6,1.9,0.7c0.3,0,0.7,0.1,1,0.1c0.3,0,0.6,0,0.9,0c0.3,0,0.6-0.1,0.9-0.1c0.3-0.1,0.6-0.1,0.8-0.2
						c0.4-0.2,0.9-0.3,1.3-0.5C100,332.8,100.5,332.6,100.5,332.6z"/>
				</g>
			</g>
		</g>
		<g>
			<path class="st22" d="M98.8,308.6c-2.5,3.1-7.1,3.5-10.2,1l-5.5-4.5c-3.1-2.6-3.5-7.1-1-10.2l0,0c2.6-3.1,7.1-3.5,10.2-1l5.5,4.5
				C100.9,300.9,101.3,305.5,98.8,308.6L98.8,308.6z"/>
			<g>
				<g>
					<path class="st23" d="M98.8,308.6c0,0-0.1,0.1-0.2,0.3c-0.1,0.2-0.2,0.5-0.5,0.9c-0.3,0.4-0.6,0.8-1.1,1.2
						c-0.5,0.4-1.1,0.8-1.9,1.1c-0.7,0.3-1.6,0.5-2.6,0.5c-0.9,0-2-0.1-3-0.5c-0.5-0.2-1-0.4-1.4-0.7l-0.7-0.5l-0.5-0.4
						c-0.7-0.6-1.5-1.1-2.2-1.7c-0.7-0.6-1.4-1.2-2.1-1.8l-0.5-0.5l-0.1-0.1l-0.1-0.1l-0.1-0.1l-0.2-0.2c-0.3-0.4-0.8-0.9-1-1.3
						c-0.6-0.9-0.9-1.9-1.1-2.8c-0.2-0.9-0.1-1.8,0-2.6c0.1-0.8,0.4-1.5,0.7-2c0.3-0.6,0.6-1,0.9-1.3c0.3-0.3,0.6-0.5,0.7-0.7
						c0.2-0.1,0.3-0.2,0.3-0.2s0,0.1-0.1,0.3c-0.1,0.2-0.2,0.5-0.3,0.9c-0.2,0.8-0.4,1.9-0.2,3.1c0.1,1.2,0.7,2.5,1.6,3.6
						c0.3,0.3,0.4,0.4,0.7,0.7l0.3,0.2l0.1,0.1l0.1,0.1c0.1,0.1-0.1-0.1-0.1,0l0,0l0,0l0,0l0.5,0.4c0.7,0.6,1.5,1.1,2.2,1.7
						c0.7,0.6,1.4,1.2,2.1,1.8c0.3,0.3,0.6,0.5,0.9,0.8c0.3,0.2,0.6,0.4,0.9,0.6c1.2,0.7,2.6,1,3.8,0.9c1.2-0.1,2.3-0.5,3-0.8
						c0.3-0.2,0.6-0.3,0.8-0.5C98.7,308.6,98.8,308.6,98.8,308.6z"/>
				</g>
			</g>
		</g>
		<g>
			<path class="st22" d="M101.9,286.4c-2.6,3.1-7.1,3.5-10.2,1l-8.9-7.2c-3.1-2.6-3.5-7.1-1-10.2l0,0c2.6-3.1,7.1-3.5,10.2-1
				l8.9,7.2C104,278.7,104.4,283.3,101.9,286.4L101.9,286.4z"/>
			<g>
				<g>
					<path class="st23" d="M101.9,286.4c0,0-0.1,0.1-0.2,0.3c-0.1,0.2-0.3,0.5-0.7,0.9c-0.3,0.4-0.8,0.8-1.4,1.2
						c-0.6,0.4-1.3,0.8-2.2,1c-0.9,0.2-1.9,0.3-3,0.2c-1.1-0.1-2.2-0.5-3.2-1.2c-0.5-0.4-0.9-0.6-1.3-0.9c-0.4-0.3-0.8-0.6-1.3-0.9
						c-0.8-0.6-1.7-1.3-2.5-1.9c-0.8-0.7-1.7-1.3-2.5-2c-0.4-0.3-0.8-0.7-1.2-1l-0.6-0.5l-0.1-0.1l-0.1-0.1l0,0l0,0l-0.1-0.1
						l-0.3-0.3c-0.9-0.9-1.5-2-1.8-3c-0.4-1-0.5-2.1-0.4-3c0.1-0.9,0.3-1.7,0.6-2.4c0.1-0.3,0.3-0.6,0.5-0.9
						c0.2-0.3,0.4-0.5,0.5-0.7c0.3-0.4,0.6-0.6,0.8-0.8c0.2-0.2,0.3-0.2,0.3-0.2s0,0.1-0.1,0.4c-0.1,0.2-0.2,0.6-0.3,1
						c-0.1,0.5-0.2,1-0.2,1.6c0,0.6,0,1.3,0.2,1.9c0.1,0.7,0.4,1.4,0.8,2c0.4,0.7,0.9,1.2,1.4,1.7l0.3,0.2l0.1,0.1l0,0l0,0l0,0
						c-0.2-0.1,0,0-0.1-0.1l0.2,0.1l0.6,0.5c0.4,0.3,0.8,0.6,1.2,1c0.8,0.7,1.7,1.3,2.5,2c0.8,0.7,1.6,1.4,2.4,2.1
						c0.8,0.7,1.5,1.3,2.2,2c1.2,1,2.8,1.5,4.2,1.5c0.7,0,1.4-0.1,2-0.3c0.6-0.2,1.1-0.4,1.5-0.6c0.4-0.2,0.7-0.4,0.9-0.6
						C101.8,286.5,101.9,286.4,101.9,286.4z"/>
				</g>
			</g>
		</g>
	</g>
</g>
<g>
	<g>
		<path class="st24" d="M236.3,66.2c0,1-0.8,1.8-1.8,1.8h-43.8c-1,0-1.8-0.8-1.8-1.8V34.3c0-1,0.8-1.8,1.8-1.8h43.8
			c1,0,1.8,0.8,1.8,1.8V66.2z"/>
		<g>
			<path class="st24" d="M223.5,50.2c0,6-4.9,10.9-10.9,10.9c-6,0-10.9-4.9-10.9-10.9c0-6,4.9-10.9,10.9-10.9
				C218.6,39.3,223.5,44.2,223.5,50.2z"/>
			<polygon class="st24" points="219.7,48.5 214.3,48.5 214.3,41.9 210.9,41.9 210.9,48.5 205.5,48.5 205.5,51.9 210.9,51.9 
				210.9,58.5 214.3,58.5 214.3,51.9 219.7,51.9 			"/>
		</g>
		<g>
			<path class="st24" d="M233.4,55.3v8.2c0,1-0.8,1.8-1.8,1.8h-11.9"/>
			<line class="st24" x1="218.6" y1="65.4" x2="210.8" y2="65.4"/>
		</g>
		<path class="st24" d="M220.2,32.5v-3.8c0-1.3-1-2.3-2.3-2.3h-10.7c-1.3,0-2.3,1-2.3,2.3v3.8"/>
	</g>
</g>
<g>
	<g>
		<g>
			<g>
				<path class="st24" d="M106.2,54.6c0,8.8-15.4,7.4-12.8,17.1c1.5,5.7,16.8,8.3,12.1,16.9c-2.7,4.9-12,4.9-12.3,12.2"/>
				<path class="st24" d="M93.2,54.6c0,8.8,15.4,7.4,12.8,17.1c-1.5,5.7-16.8,8.3-12,16.9c2.7,4.9,12,4.9,12.3,12.2"/>
			</g>
			<line class="st24" x1="94.8" y1="58.8" x2="104.7" y2="58.8"/>
			<line class="st24" x1="93.7" y1="55.9" x2="106.1" y2="55.9"/>
			<line class="st24" x1="94.2" y1="66.2" x2="105.3" y2="66.2"/>
			<line class="st24" x1="94.2" y1="88.8" x2="105.3" y2="88.8"/>
			<line class="st24" x1="93.5" y1="69.8" x2="106.3" y2="69.8"/>
			<line class="st24" x1="93.1" y1="85.1" x2="105.8" y2="85.1"/>
			<line class="st24" x1="93.9" y1="72.9" x2="105.5" y2="72.9"/>
			<line class="st24" x1="94.8" y1="81.7" x2="104.7" y2="81.7"/>
			<line class="st24" x1="104.5" y1="96.7" x2="94.7" y2="96.7"/>
			<line class="st24" x1="105.6" y1="99.5" x2="93.2" y2="99.5"/>
		</g>
		<g>
			<path class="st24" d="M326.7,91.3c0,0.7-0.5,1.2-1.2,1.2l0,0c-0.7,0-1.2-0.5-1.2-1.2V55.5c0-0.7,0.5-1.2,1.2-1.2l0,0
				c0.7,0,1.2,0.5,1.2,1.2V91.3z"/>
			<path class="st24" d="M326.7,96c0.6-3.4,2.7-2.9,3.5-3.4l0.6-0.3c0.8-0.6,1.3-1.4,1.3-2.5V54.7c0-2.9-3-3.6-6.7-3.6
				c-3.7,0-6.7,0.7-6.7,3.6v35.1c0,1.2,0.5,2,1.3,2.5l0.6,0.3c0.8,0.5,2.8,0.1,3.5,4v6.6c0,0,0.2,1.3,1.2,1.2c0,0,0.9,0.3,1.2-1.1
				V96z"/>
			<g>
				<line class="st24" x1="318.9" y1="56.1" x2="321.9" y2="56.1"/>
				<line class="st24" x1="318.9" y1="59.3" x2="321.9" y2="59.3"/>
				<line class="st24" x1="318.9" y1="62.6" x2="321.9" y2="62.6"/>
				<line class="st24" x1="318.9" y1="65.8" x2="321.9" y2="65.8"/>
				<line class="st24" x1="318.9" y1="69.1" x2="321.9" y2="69.1"/>
				<line class="st24" x1="318.9" y1="72.3" x2="321.9" y2="72.3"/>
				<line class="st24" x1="318.9" y1="75.5" x2="321.9" y2="75.5"/>
				<line class="st24" x1="318.9" y1="78.8" x2="321.9" y2="78.8"/>
				<line class="st24" x1="318.9" y1="82" x2="321.9" y2="82"/>
				<line class="st24" x1="318.9" y1="85.3" x2="321.9" y2="85.3"/>
				<line class="st24" x1="318.9" y1="88.5" x2="321.9" y2="88.5"/>
			</g>
		</g>
	</g>
</g>
<g>
	<g>
		<g>
			<polygon class="st24" points="49.5,151.7 55.7,151.7 55.7,165 42.9,165 			"/>
			<rect x="32.9" y="171.5" class="st24" width="2.4" height="3.7"/>
			<g>
				<path class="st24" d="M47,178.4c0,2.7-2.2,4.9-4.9,4.9c-2.7,0-4.9-2.2-4.9-4.9c0-2.7,2.2-4.9,4.9-4.9
					C44.8,173.5,47,175.7,47,178.4z"/>
				<path class="st24" d="M44.6,178.4c0,1.4-1.1,2.5-2.5,2.5c-1.4,0-2.5-1.1-2.5-2.5c0-1.4,1.1-2.5,2.5-2.5
					C43.5,175.9,44.6,177,44.6,178.4z"/>
			</g>
			<g>
				<path class="st24" d="M87.3,178.4c0,2.7-2.2,4.9-4.9,4.9c-2.7,0-4.9-2.2-4.9-4.9c0-2.7,2.2-4.9,4.9-4.9
					C85.1,173.5,87.3,175.7,87.3,178.4z"/>
				<path class="st24" d="M84.8,178.4c0,1.4-1.1,2.5-2.5,2.5c-1.4,0-2.5-1.1-2.5-2.5c0-1.4,1.1-2.5,2.5-2.5
					C83.7,175.9,84.8,177,84.8,178.4z"/>
			</g>
			<path class="st24" d="M48.1,148.8l-7.7,15l-7.5,5.9v7.8h4.4c0.4-2.3,2.4-4.1,4.8-4.1c2.4,0,4.4,1.8,4.8,4.1h11.2v-28.8H48.1z"/>
			<path class="st24" d="M58.1,148.8v28.8h19.4c0.4-2.3,2.4-4.1,4.8-4.1c2.4,0,4.4,1.8,4.8,4.1h4.3v-28.8H58.1z"/>
			<g>
				<path class="st24" d="M82.9,163.2c0,4.4-3.6,8-8,8c-4.4,0-8-3.6-8-8c0-4.4,3.6-8,8-8C79.3,155.2,82.9,158.8,82.9,163.2z"/>
				<polygon class="st24" points="79.5,162 76,162 76,157.7 73.7,157.7 73.7,162 70.2,162 70.2,164.3 73.7,164.3 73.7,168.6 
					76,168.6 76,164.3 79.5,164.3 				"/>
			</g>
			<rect x="50.1" y="144.9" class="st24" width="3.8" height="3.9"/>
		</g>
		<g>
			<path class="st24" d="M389.8,175.6c0,2.8-2.3,5-5,5h-26.9c-2.8,0-5-2.3-5-5v-28.8c0-2.8,2.2-5,5-5h26.9c2.8,0,5,2.3,5,5V175.6z"
				/>
			<path class="st24" d="M392.3,177.6c0,3.2-2.6,5.7-5.7,5.7h-30.5c-3.2,0-5.7-2.6-5.7-5.7v-32.7c0-3.2,2.6-5.7,5.7-5.7h30.5
				c3.2,0,5.7,2.6,5.7,5.7V177.6z"/>
			<g>
				<path class="st24" d="M365.8,149.8c3,2.7,2.7,7.8,1.4,9.8c0,0-2,2.8-1.3,6.8c0,0,2.5,9.9-2.2,11.6c0,0-3.9,0.9-5.1-4.9
					c-1.2-6-5-21.6,3-24C363.4,148.5,364.8,148.9,365.8,149.8z"/>
				<path class="st24" d="M376.8,149.8c-3,2.7-2.7,7.8-1.4,9.8c0,0,2,2.8,1.3,6.8c0,0-2.5,9.9,2.2,11.6c0,0,3.9,0.9,5.1-4.9
					c1.2-6,5-21.6-3-24C379.3,148.5,377.8,148.9,376.8,149.8z"/>
			</g>
			<rect x="366.6" y="144.2" class="st24" width="9.4" height="3.6"/>
		</g>
	</g>
</g>
<g>
	<circle class="st13" cx="136.6" cy="95.2" r="4"/>
	<circle class="st13" cx="15.5" cy="218.3" r="4"/>
	<circle class="st13" cx="388.3" cy="274.6" r="4"/>
	<circle class="st13" cx="358.1" cy="82" r="4"/>
	<circle class="st13" cx="41.6" cy="81.2" r="4"/>
	<g>
		<line class="st13" x1="147.5" y1="174.4" x2="147.5" y2="182.9"/>
		<line class="st13" x1="151.7" y1="178.7" x2="143.2" y2="178.7"/>
	</g>
	<g>
		<line class="st13" x1="409.4" y1="354.6" x2="409.4" y2="363.1"/>
		<line class="st13" x1="413.7" y1="358.8" x2="405.1" y2="358.8"/>
	</g>
	<g>
		<line class="st13" x1="27.4" y1="338.6" x2="27.4" y2="347.2"/>
		<line class="st13" x1="31.7" y1="342.9" x2="23.2" y2="342.9"/>
	</g>
	<g>
		<line class="st13" x1="114.3" y1="35" x2="114.3" y2="43.5"/>
		<line class="st13" x1="118.6" y1="39.3" x2="110.1" y2="39.3"/>
	</g>
	<g>
		<path class="st13" d="M388.3,206.9c5.6,0,11.2,0,16.9,0"/>
		<path class="st13" d="M363.8,206.9c6.1,0,12.2,0,18.2,0"/>
	</g>
	<g>
		<path class="st13" d="M105.2,315.3c5.6,0,11.2,0,16.9,0"/>
		<path class="st13" d="M80.8,315.3c6.1,0,12.2,0,18.2,0"/>
	</g>
	<g>
		<path class="st13" d="M267.3,29.4c5.6,0,11.2,0,16.9,0"/>
		<path class="st13" d="M254.3,29.4c2.3,0,4.5,0,6.8,0"/>
		<path class="st13" d="M242.9,29.4c1.8,0,3.6,0,5.4,0"/>
	</g>
	<g>
		<path class="st13" d="M362.3,313.8c2.9,0,5.9,0,8.8,0"/>
		<path class="st13" d="M348.4,313.8c3.4,0,6.9,0,10.3,0"/>
		<path class="st13" d="M338.1,313.8c1.4,0,5.4,0,6.7,0"/>
	</g>
</g>
</svg>
